<svg width="752" height="127" viewBox="0 0 752 127" fill="none" xmlns="http://www.w3.org/2000/svg">
<rect x="179.886" y="1.41748" width="392.052" height="124.694" rx="16" fill="#ffffff" stroke="#ffffff"/>
<rect x="88" y="1.41748" width="91.8857" height="124.694" rx="23" fill="#ffffff" stroke="#ffffff"/>
<rect width="91.8857" height="124.694" rx="23" transform="matrix(-1 0 0 1 663.823 1.41748)" fill="#ffffff" stroke="#ffffff"/>
<rect x="44.3154" y="1.41748" width="43.6846" height="124.694" rx="21.8423" fill="#ffffff" stroke="#ffffff"/>
<rect width="43.6846" height="124.694" rx="21.8423" transform="matrix(-1 0 0 1 707.508 1.41748)" fill="#ffffff" stroke="#ffffff"/>
<rect x="0.630859" y="1.41748" width="43.6846" height="124.694" rx="21.8423" fill="#ffffff" stroke="#ffffff"/>
<rect width="43.6846" height="124.694" rx="21.8423" transform="matrix(-1 0 0 1 751.192 1.41748)" fill="#ffffff" stroke="#ffffff"/>
<path d="M242.072 84.2646H232.472V41.3846H268.76V50.0246H242.072V59.6886H267.8V68.2646H242.072V84.2646ZM289.871 84.9046C279.183 84.9046 271.887 79.6566 271.887 68.2646C271.887 58.0246 279.119 51.5606 289.679 51.5606C300.175 51.5606 307.151 57.0646 307.151 67.1126C307.151 68.2646 307.023 69.0966 306.895 70.1846H280.783C281.039 75.1126 283.343 77.2246 289.551 77.2246C295.247 77.2246 297.231 75.7526 297.231 73.0006V72.3606H306.831V73.0646C306.831 80.0406 300.047 84.9046 289.871 84.9046ZM289.487 59.0486C283.791 59.0486 281.359 60.9686 280.911 65.1286H297.935C297.679 60.9046 295.119 59.0486 289.487 59.0486ZM321.078 84.9046C314.166 84.9046 310.006 81.7046 310.006 76.3286C310.006 71.5926 313.526 68.6486 320.374 67.9446L334.134 66.5366V65.3206C334.134 61.1606 332.278 60.0086 327.158 60.0086C322.294 60.0086 320.31 61.2886 320.31 64.9366V65.1926H310.646V65.0006C310.646 57.0646 317.302 51.5606 327.862 51.5606C338.55 51.5606 343.606 57.0646 343.606 65.4486V84.2646H334.646V76.9046H334.134C332.662 81.8966 328.182 84.9046 321.078 84.9046ZM319.67 75.6886C319.67 77.4166 321.014 78.1206 323.83 78.1206C330.358 78.1206 333.878 76.5846 334.134 72.0406L322.998 73.3206C320.694 73.5126 319.67 74.1526 319.67 75.6886ZM371.064 84.2646H363.128C355.64 84.2646 351.096 80.7446 351.096 72.6806V60.1366H346.04V52.2006H351.096V45.9926H360.696V52.2006H371.064V60.1366H360.696V71.5926C360.696 74.7926 361.912 75.6246 365.304 75.6246H371.064V84.2646ZM387.908 84.9046C378.884 84.9046 374.596 79.3366 374.596 72.1686V52.2006H384.196V68.9686C384.196 74.1526 386.372 76.3286 392.452 76.3286C398.724 76.3286 400.964 73.8966 400.964 68.4566V52.2006H410.564V84.2646H401.604V74.4726H401.092C400.26 79.8486 396.356 84.9046 387.908 84.9046ZM425.072 84.2646H415.472V52.2006H424.368V60.7126H424.944C425.84 55.5286 429.232 51.5606 435.696 51.5606C442.864 51.5606 445.808 56.4886 445.808 62.7606V68.0726H436.208V64.7446C436.208 61.2246 434.8 59.6886 430.896 59.6886C426.608 59.6886 425.072 61.6726 425.072 65.7046V84.2646ZM466.309 84.9046C455.621 84.9046 448.325 79.6566 448.325 68.2646C448.325 58.0246 455.557 51.5606 466.117 51.5606C476.613 51.5606 483.589 57.0646 483.589 67.1126C483.589 68.2646 483.461 69.0966 483.333 70.1846H457.221C457.477 75.1126 459.781 77.2246 465.989 77.2246C471.685 77.2246 473.669 75.7526 473.669 73.0006V72.3606H483.269V73.0646C483.269 80.0406 476.485 84.9046 466.309 84.9046ZM465.925 59.0486C460.229 59.0486 457.797 60.9686 457.349 65.1286H474.373C474.117 60.9046 471.557 59.0486 465.925 59.0486ZM503.852 84.9046C493.036 84.9046 487.084 80.6806 487.084 73.2566V73.0646H496.684V73.6406C496.684 76.5206 498.476 77.2886 503.916 77.2886C509.036 77.2886 510.252 76.4566 510.252 74.5366C510.252 72.7446 509.292 72.2326 505.516 71.7206L496.492 70.6326C490.092 69.9286 486.508 67.0486 486.508 61.6726C486.508 56.0406 491.308 51.5606 502.316 51.5606C512.812 51.5606 518.764 55.5286 518.764 63.3366V63.5286H509.164V63.1446C509.164 60.5206 507.884 59.1766 501.996 59.1766C497.196 59.1766 495.98 60.0086 495.98 62.0566C495.98 63.7206 496.876 64.4246 501.1 64.9366L507.948 65.7686C516.524 66.7286 519.724 69.6086 519.724 74.9206C519.724 80.9366 513.772 84.9046 503.852 84.9046Z" fill="black"/>
<path d="M242.072 84.2646V84.7646H242.572V84.2646H242.072ZM232.472 84.2646H231.972V84.7646H232.472V84.2646ZM232.472 41.3846V40.8846H231.972V41.3846H232.472ZM268.76 41.3846H269.26V40.8846H268.76V41.3846ZM268.76 50.0246V50.5246H269.26V50.0246H268.76ZM242.072 50.0246V49.5246H241.572V50.0246H242.072ZM242.072 59.6886H241.572V60.1886H242.072V59.6886ZM267.8 59.6886H268.3V59.1886H267.8V59.6886ZM267.8 68.2646V68.7646H268.3V68.2646H267.8ZM242.072 68.2646V67.7646H241.572V68.2646H242.072ZM242.072 83.7646H232.472V84.7646H242.072V83.7646ZM232.972 84.2646V41.3846H231.972V84.2646H232.972ZM232.472 41.8846H268.76V40.8846H232.472V41.8846ZM268.26 41.3846V50.0246H269.26V41.3846H268.26ZM268.76 49.5246H242.072V50.5246H268.76V49.5246ZM241.572 50.0246V59.6886H242.572V50.0246H241.572ZM242.072 60.1886H267.8V59.1886H242.072V60.1886ZM267.3 59.6886V68.2646H268.3V59.6886H267.3ZM267.8 67.7646H242.072V68.7646H267.8V67.7646ZM241.572 68.2646V84.2646H242.572V68.2646H241.572ZM306.895 70.1846V70.6846H307.34L307.392 70.2431L306.895 70.1846ZM280.783 70.1846V69.6846H280.256L280.284 70.2106L280.783 70.1846ZM297.231 72.3606V71.8606H296.731V72.3606H297.231ZM306.831 72.3606H307.331V71.8606H306.831V72.3606ZM280.911 65.1286L280.414 65.0751L280.354 65.6286H280.911V65.1286ZM297.935 65.1286V65.6286H298.466L298.434 65.0984L297.935 65.1286ZM289.871 84.4046C284.602 84.4046 280.238 83.1105 277.198 80.4786C274.171 77.8571 272.387 73.8482 272.387 68.2646H271.387C271.387 74.0731 273.252 78.3842 276.544 81.2347C279.824 84.0748 284.453 85.4046 289.871 85.4046V84.4046ZM272.387 68.2646C272.387 63.2682 274.148 59.2307 277.163 56.4395C280.182 53.6445 284.5 52.0606 289.679 52.0606V51.0606C284.298 51.0606 279.72 52.7088 276.483 55.7057C273.242 58.7066 271.387 63.0211 271.387 68.2646H272.387ZM289.679 52.0606C294.845 52.0606 299.084 53.4151 302.025 55.9475C304.955 58.4712 306.651 62.2124 306.651 67.1126H307.651C307.651 61.9649 305.859 57.9301 302.677 55.1898C299.506 52.4582 295.009 51.0606 289.679 51.0606V52.0606ZM306.651 67.1126C306.651 68.2276 306.528 69.0226 306.399 70.1262L307.392 70.2431C307.518 69.1707 307.651 68.3017 307.651 67.1126H306.651ZM306.895 69.6846H280.783V70.6846H306.895V69.6846ZM280.284 70.2106C280.415 72.7401 281.078 74.6664 282.617 75.938C284.137 77.1946 286.41 77.7246 289.551 77.7246V76.7246C286.484 76.7246 284.502 76.1987 283.254 75.1673C282.024 74.1509 281.407 72.5572 281.282 70.1587L280.284 70.2106ZM289.551 77.7246C292.421 77.7246 294.453 77.3579 295.781 76.5754C296.456 76.1776 296.952 75.6704 297.275 75.0537C297.596 74.4404 297.731 73.7482 297.731 73.0006H296.731C296.731 73.6291 296.618 74.1529 296.389 74.5896C296.162 75.0229 295.806 75.3997 295.273 75.7139C294.185 76.3554 292.378 76.7246 289.551 76.7246V77.7246ZM297.731 73.0006V72.3606H296.731V73.0006H297.731ZM297.231 72.8606H306.831V71.8606H297.231V72.8606ZM306.331 72.3606V73.0646H307.331V72.3606H306.331ZM306.331 73.0646C306.331 76.3705 304.731 79.1856 301.879 81.1917C299.017 83.2055 294.886 84.4046 289.871 84.4046V85.4046C295.033 85.4046 299.381 84.1718 302.455 82.0096C305.539 79.8397 307.331 76.7348 307.331 73.0646H306.331ZM289.487 58.5486C286.598 58.5486 284.439 59.0326 282.937 60.1242C281.412 61.2326 280.648 62.9042 280.414 65.0751L281.408 65.1822C281.622 63.1931 282.298 61.8247 283.525 60.9331C284.775 60.0247 286.68 59.5486 289.487 59.5486V58.5486ZM280.911 65.6286H297.935V64.6286H280.911V65.6286ZM298.434 65.0984C298.3 62.8842 297.551 61.2033 296.02 60.0991C294.517 59.0156 292.341 58.5486 289.487 58.5486V59.5486C292.265 59.5486 294.186 60.0097 295.435 60.9102C296.655 61.79 297.314 63.1491 297.436 65.1589L298.434 65.0984ZM320.374 67.9446L320.323 67.4472L320.323 67.4473L320.374 67.9446ZM334.134 66.5366L334.185 67.0341L334.634 66.9881V66.5366H334.134ZM320.31 65.1926V65.6926H320.81V65.1926H320.31ZM310.646 65.1926H310.146V65.6926H310.646V65.1926ZM343.606 84.2646V84.7646H344.106V84.2646H343.606ZM334.646 84.2646H334.146V84.7646H334.646V84.2646ZM334.646 76.9046H335.146V76.4046H334.646V76.9046ZM334.134 76.9046V76.4046H333.76L333.655 76.7632L334.134 76.9046ZM334.134 72.0406L334.633 72.0688L334.667 71.4761L334.077 71.5439L334.134 72.0406ZM322.998 73.3206L323.04 73.8189L323.047 73.8183L323.055 73.8174L322.998 73.3206ZM321.078 84.4046C317.692 84.4046 315.045 83.6199 313.256 82.2371C311.483 80.8668 310.506 78.8737 310.506 76.3286H309.506C309.506 79.1596 310.609 81.4545 312.644 83.0282C314.664 84.5894 317.553 85.4046 321.078 85.4046V84.4046ZM310.506 76.3286C310.506 74.1009 311.326 72.327 312.938 71.0121C314.57 69.6812 317.053 68.7887 320.425 68.442L320.323 67.4473C316.847 67.8046 314.146 68.7361 312.306 70.2372C310.446 71.7543 309.506 73.8204 309.506 76.3286H310.506ZM320.425 68.442L334.185 67.0341L334.083 66.0392L320.323 67.4472L320.425 68.442ZM334.634 66.5366V65.3206H333.634V66.5366H334.634ZM334.634 65.3206C334.634 63.1796 334.157 61.6493 332.861 60.7012C331.615 59.7888 329.72 59.5086 327.158 59.5086V60.5086C329.716 60.5086 331.309 60.8045 332.271 61.5081C333.183 62.176 333.634 63.3017 333.634 65.3206H334.634ZM327.158 59.5086C324.709 59.5086 322.861 59.8251 321.623 60.6956C320.337 61.5995 319.81 63.0203 319.81 64.9366H320.81C320.81 63.205 321.276 62.1618 322.198 61.5137C323.167 60.8322 324.743 60.5086 327.158 60.5086V59.5086ZM319.81 64.9366V65.1926H320.81V64.9366H319.81ZM320.31 64.6926H310.646V65.6926H320.31V64.6926ZM311.146 65.1926V65.0006H310.146V65.1926H311.146ZM311.146 65.0006C311.146 61.1855 312.74 57.9696 315.605 55.6963C318.479 53.4153 322.665 52.0606 327.862 52.0606V51.0606C322.5 51.0606 318.077 52.458 314.983 54.913C311.88 57.3757 310.146 60.8798 310.146 65.0006H311.146ZM327.862 52.0606C333.125 52.0606 336.922 53.4153 339.401 55.7264C341.875 58.033 343.106 61.358 343.106 65.4486H344.106C344.106 61.1553 342.809 57.5363 340.083 54.9949C337.362 52.458 333.287 51.0606 327.862 51.0606V52.0606ZM343.106 65.4486V84.2646H344.106V65.4486H343.106ZM343.606 83.7646H334.646V84.7646H343.606V83.7646ZM335.146 84.2646V76.9046H334.146V84.2646H335.146ZM334.646 76.4046H334.134V77.4046H334.646V76.4046ZM333.655 76.7632C332.952 79.1457 331.538 81.0439 329.452 82.3532C327.36 83.6668 324.562 84.4046 321.078 84.4046V85.4046C324.698 85.4046 327.693 84.6385 329.984 83.2001C332.282 81.7574 333.844 79.6556 334.614 77.0461L333.655 76.7632ZM319.17 75.6886C319.17 76.1857 319.267 76.6407 319.486 77.0387C319.706 77.4389 320.033 77.7517 320.447 77.9871C321.252 78.4458 322.401 78.6206 323.83 78.6206V77.6206C322.443 77.6206 321.512 77.4435 320.942 77.1182C320.667 76.9616 320.482 76.7744 320.362 76.5566C320.241 76.3366 320.17 76.0556 320.17 75.6886H319.17ZM323.83 78.6206C327.113 78.6206 329.732 78.2381 331.575 77.2226C333.469 76.1792 334.497 74.4948 334.633 72.0688L333.635 72.0125C333.516 74.1305 332.655 75.4861 331.093 76.3467C329.48 77.2352 327.075 77.6206 323.83 77.6206V78.6206ZM334.077 71.5439L322.941 72.8239L323.055 73.8174L334.191 72.5374L334.077 71.5439ZM322.957 72.8224C321.786 72.92 320.842 73.1355 320.186 73.5893C319.482 74.0756 319.17 74.7886 319.17 75.6886H320.17C320.17 75.0527 320.37 74.6777 320.754 74.412C321.186 74.1138 321.907 73.9133 323.04 73.8189L322.957 72.8224ZM371.064 84.2646V84.7646H371.564V84.2646H371.064ZM351.096 60.1366H351.596V59.6366H351.096V60.1366ZM346.04 60.1366H345.54V60.6366H346.04V60.1366ZM346.04 52.2006V51.7006H345.54V52.2006H346.04ZM351.096 52.2006V52.7006H351.596V52.2006H351.096ZM351.096 45.9926V45.4926H350.596V45.9926H351.096ZM360.696 45.9926H361.196V45.4926H360.696V45.9926ZM360.696 52.2006H360.196V52.7006H360.696V52.2006ZM371.064 52.2006H371.564V51.7006H371.064V52.2006ZM371.064 60.1366V60.6366H371.564V60.1366H371.064ZM360.696 60.1366V59.6366H360.196V60.1366H360.696ZM371.064 75.6246H371.564V75.1246H371.064V75.6246ZM371.064 83.7646H363.128V84.7646H371.064V83.7646ZM363.128 83.7646C359.454 83.7646 356.587 82.9004 354.641 81.1271C352.703 79.3616 351.596 76.6193 351.596 72.6806H350.596C350.596 76.806 351.761 79.8557 353.967 81.8662C356.165 83.8689 359.314 84.7646 363.128 84.7646V83.7646ZM351.596 72.6806V60.1366H350.596V72.6806H351.596ZM351.096 59.6366H346.04V60.6366H351.096V59.6366ZM346.54 60.1366V52.2006H345.54V60.1366H346.54ZM346.04 52.7006H351.096V51.7006H346.04V52.7006ZM351.596 52.2006V45.9926H350.596V52.2006H351.596ZM351.096 46.4926H360.696V45.4926H351.096V46.4926ZM360.196 45.9926V52.2006H361.196V45.9926H360.196ZM360.696 52.7006H371.064V51.7006H360.696V52.7006ZM370.564 52.2006V60.1366H371.564V52.2006H370.564ZM371.064 59.6366H360.696V60.6366H371.064V59.6366ZM360.196 60.1366V71.5926H361.196V60.1366H360.196ZM360.196 71.5926C360.196 73.2311 360.502 74.4364 361.408 75.1924C362.285 75.9252 363.604 76.1246 365.304 76.1246V75.1246C363.612 75.1246 362.627 74.9081 362.049 74.4249C361.498 73.9649 361.196 73.1542 361.196 71.5926H360.196ZM365.304 76.1246H371.064V75.1246H365.304V76.1246ZM370.564 75.6246V84.2646H371.564V75.6246H370.564ZM374.596 52.2006V51.7006H374.096V52.2006H374.596ZM384.196 52.2006H384.696V51.7006H384.196V52.2006ZM400.964 52.2006V51.7006H400.464V52.2006H400.964ZM410.564 52.2006H411.064V51.7006H410.564V52.2006ZM410.564 84.2646V84.7646H411.064V84.2646H410.564ZM401.604 84.2646H401.104V84.7646H401.604V84.2646ZM401.604 74.4726H402.104V73.9726H401.604V74.4726ZM401.092 74.4726V73.9726H400.663L400.597 74.3962L401.092 74.4726ZM387.908 84.4046C383.501 84.4046 380.315 83.0482 378.228 80.8781C376.137 78.7038 375.096 75.6551 375.096 72.1686H374.096C374.096 75.8502 375.198 79.1695 377.507 81.5712C379.821 83.9771 383.29 85.4046 387.908 85.4046V84.4046ZM375.096 72.1686V52.2006H374.096V72.1686H375.096ZM374.596 52.7006H384.196V51.7006H374.596V52.7006ZM383.696 52.2006V68.9686H384.696V52.2006H383.696ZM383.696 68.9686C383.696 71.6156 384.249 73.6296 385.706 74.9617C387.151 76.2825 389.374 76.8286 392.452 76.8286V75.8286C389.449 75.8286 387.544 75.2868 386.381 74.2236C385.23 73.1717 384.696 71.5057 384.696 68.9686H383.696ZM392.452 76.8286C395.633 76.8286 397.922 76.2154 399.406 74.7936C400.895 73.3662 401.464 71.2298 401.464 68.4566H400.464C400.464 71.1235 399.912 72.9231 398.714 74.0717C397.509 75.2259 395.542 75.8286 392.452 75.8286V76.8286ZM401.464 68.4566V52.2006H400.464V68.4566H401.464ZM400.964 52.7006H410.564V51.7006H400.964V52.7006ZM410.064 52.2006V84.2646H411.064V52.2006H410.064ZM410.564 83.7646H401.604V84.7646H410.564V83.7646ZM402.104 84.2646V74.4726H401.104V84.2646H402.104ZM401.604 73.9726H401.092V74.9726H401.604V73.9726ZM400.597 74.3962C400.196 76.9931 399.056 79.4889 397.02 81.3342C394.989 83.1747 392.027 84.4046 387.908 84.4046V85.4046C392.236 85.4046 395.45 84.1066 397.691 82.0751C399.928 80.0484 401.156 77.3282 401.586 74.5491L400.597 74.3962ZM425.072 84.2646V84.7646H425.572V84.2646H425.072ZM415.472 84.2646H414.972V84.7646H415.472V84.2646ZM415.472 52.2006V51.7006H414.972V52.2006H415.472ZM424.368 52.2006H424.868V51.7006H424.368V52.2006ZM424.368 60.7126H423.868V61.2126H424.368V60.7126ZM424.944 60.7126V61.2126H425.365L425.437 60.7978L424.944 60.7126ZM445.808 68.0726V68.5726H446.308V68.0726H445.808ZM436.208 68.0726H435.708V68.5726H436.208V68.0726ZM425.072 83.7646H415.472V84.7646H425.072V83.7646ZM415.972 84.2646V52.2006H414.972V84.2646H415.972ZM415.472 52.7006H424.368V51.7006H415.472V52.7006ZM423.868 52.2006V60.7126H424.868V52.2006H423.868ZM424.368 61.2126H424.944V60.2126H424.368V61.2126ZM425.437 60.7978C425.871 58.2864 426.903 56.1078 428.572 54.5592C430.236 53.0163 432.573 52.0606 435.696 52.0606V51.0606C432.356 51.0606 429.765 52.089 427.892 53.8261C426.025 55.5575 424.913 57.9549 424.451 60.6275L425.437 60.7978ZM435.696 52.0606C439.155 52.0606 441.53 53.2433 443.051 55.1232C444.587 57.0204 445.308 59.6938 445.308 62.7606H446.308C446.308 59.5555 445.557 56.6289 443.829 54.494C442.087 52.342 439.405 51.0606 435.696 51.0606V52.0606ZM445.308 62.7606V68.0726H446.308V62.7606H445.308ZM445.808 67.5726H436.208V68.5726H445.808V67.5726ZM436.708 68.0726V64.7446H435.708V68.0726H436.708ZM436.708 64.7446C436.708 62.9349 436.349 61.5039 435.366 60.5397C434.386 59.5785 432.895 59.1886 430.896 59.1886V60.1886C432.801 60.1886 433.966 60.5668 434.666 61.2536C435.363 61.9374 435.708 63.0344 435.708 64.7446H436.708ZM430.896 59.1886C428.686 59.1886 427.063 59.6992 426.008 60.8461C424.962 61.9837 424.572 63.6427 424.572 65.7046H425.572C425.572 63.7346 425.951 62.3856 426.744 61.5232C427.529 60.67 428.818 60.1886 430.896 60.1886V59.1886ZM424.572 65.7046V84.2646H425.572V65.7046H424.572ZM483.333 70.1846V70.6846H483.777L483.829 70.2431L483.333 70.1846ZM457.221 70.1846V69.6846H456.694L456.721 70.2106L457.221 70.1846ZM473.669 72.3606V71.8606H473.169V72.3606H473.669ZM483.269 72.3606H483.769V71.8606H483.269V72.3606ZM457.349 65.1286L456.851 65.0751L456.792 65.6286H457.349V65.1286ZM474.373 65.1286V65.6286H474.904L474.872 65.0984L474.373 65.1286ZM466.309 84.4046C461.039 84.4046 456.676 83.1105 453.636 80.4786C450.608 77.8571 448.825 73.8482 448.825 68.2646H447.825C447.825 74.0731 449.689 78.3842 452.981 81.2347C456.262 84.0748 460.89 85.4046 466.309 85.4046V84.4046ZM448.825 68.2646C448.825 63.2682 450.586 59.2307 453.6 56.4395C456.619 53.6445 460.938 52.0606 466.117 52.0606V51.0606C460.735 51.0606 456.158 52.7088 452.921 55.7057C449.68 58.7066 447.825 63.0211 447.825 68.2646H448.825ZM466.117 52.0606C471.282 52.0606 475.522 53.4151 478.462 55.9475C481.393 58.4712 483.089 62.2124 483.089 67.1126H484.089C484.089 61.9649 482.297 57.9301 479.115 55.1898C475.943 52.4582 471.447 51.0606 466.117 51.0606V52.0606ZM483.089 67.1126C483.089 68.2276 482.966 69.0226 482.836 70.1262L483.829 70.2431C483.955 69.1707 484.089 68.3017 484.089 67.1126H483.089ZM483.333 69.6846H457.221V70.6846H483.333V69.6846ZM456.721 70.2106C456.853 72.7401 457.516 74.6664 459.054 75.938C460.574 77.1946 462.848 77.7246 465.989 77.7246V76.7246C462.921 76.7246 460.939 76.1987 459.691 75.1673C458.462 74.1509 457.845 72.5572 457.72 70.1587L456.721 70.2106ZM465.989 77.7246C468.858 77.7246 470.891 77.3579 472.218 76.5754C472.893 76.1776 473.389 75.6704 473.713 75.0537C474.034 74.4404 474.169 73.7482 474.169 73.0006H473.169C473.169 73.6291 473.055 74.1529 472.827 74.5896C472.6 75.0229 472.244 75.3997 471.711 75.7139C470.622 76.3554 468.815 76.7246 465.989 76.7246V77.7246ZM474.169 73.0006V72.3606H473.169V73.0006H474.169ZM473.669 72.8606H483.269V71.8606H473.669V72.8606ZM482.769 72.3606V73.0646H483.769V72.3606H482.769ZM482.769 73.0646C482.769 76.3705 481.168 79.1856 478.317 81.1917C475.454 83.2055 471.323 84.4046 466.309 84.4046V85.4046C471.47 85.4046 475.819 84.1718 478.892 82.0096C481.977 79.8397 483.769 76.7348 483.769 73.0646H482.769ZM465.925 58.5486C463.036 58.5486 460.877 59.0326 459.375 60.1242C457.85 61.2326 457.085 62.9042 456.851 65.0751L457.846 65.1822C458.06 63.1931 458.736 61.8247 459.963 60.9331C461.213 60.0247 463.118 59.5486 465.925 59.5486V58.5486ZM457.349 65.6286H474.373V64.6286H457.349V65.6286ZM474.872 65.0984C474.738 62.8842 473.989 61.2033 472.457 60.0991C470.954 59.0156 468.779 58.5486 465.925 58.5486V59.5486C468.703 59.5486 470.623 60.0097 471.872 60.9102C473.092 61.79 473.752 63.1491 473.874 65.1589L474.872 65.0984ZM487.084 73.0646V72.5646H486.584V73.0646H487.084ZM496.684 73.0646H497.184V72.5646H496.684V73.0646ZM505.516 71.7206L505.583 71.2251L505.575 71.2242L505.516 71.7206ZM496.492 70.6326L496.551 70.1362L496.546 70.1356L496.492 70.6326ZM518.764 63.5286V64.0286H519.264V63.5286H518.764ZM509.164 63.5286H508.664V64.0286H509.164V63.5286ZM501.1 64.9366L501.16 64.4403L501.16 64.4403L501.1 64.9366ZM507.948 65.7686L507.887 66.265L507.892 66.2655L507.948 65.7686ZM503.852 84.4046C498.497 84.4046 494.421 83.3573 491.698 81.4548C489 79.5698 487.584 76.8152 487.584 73.2566H486.584C486.584 77.1221 488.143 80.1915 491.125 82.2745C494.082 84.34 498.39 85.4046 503.852 85.4046V84.4046ZM487.584 73.2566V73.0646H486.584V73.2566H487.584ZM487.084 73.5646H496.684V72.5646H487.084V73.5646ZM496.184 73.0646V73.6406H497.184V73.0646H496.184ZM496.184 73.6406C496.184 74.4083 496.302 75.0857 496.607 75.6599C496.916 76.2436 497.396 76.6785 498.04 76.9938C499.285 77.6033 501.205 77.7886 503.916 77.7886V76.7886C501.186 76.7886 499.49 76.59 498.479 76.0955C497.996 75.8587 497.687 75.5617 497.49 75.1914C497.289 74.8116 497.184 74.313 497.184 73.6406H496.184ZM503.916 77.7886C506.473 77.7886 508.162 77.5857 509.218 77.0844C509.765 76.8248 510.164 76.4758 510.418 76.0201C510.668 75.5716 510.752 75.0659 510.752 74.5366H509.752C509.752 74.9674 509.683 75.2857 509.545 75.5332C509.411 75.7735 509.186 75.9925 508.789 76.1809C507.958 76.5756 506.478 76.7886 503.916 76.7886V77.7886ZM510.752 74.5366C510.752 74.0486 510.687 73.5967 510.493 73.1949C510.294 72.7833 509.979 72.4664 509.552 72.2169C508.74 71.7424 507.454 71.4789 505.583 71.2252L505.448 72.2161C507.353 72.4744 508.436 72.7229 509.047 73.0804C509.332 73.2469 509.494 73.426 509.593 73.6304C509.696 73.8446 509.752 74.1287 509.752 74.5366H510.752ZM505.575 71.2242L496.551 70.1362L496.432 71.1291L505.456 72.2171L505.575 71.2242ZM496.546 70.1356C493.4 69.7896 491.018 68.915 489.428 67.5279C487.856 66.1562 487.008 64.2379 487.008 61.6726H486.008C486.008 64.4834 486.951 66.6931 488.771 68.2814C490.573 69.8542 493.183 70.7717 496.437 71.1296L496.546 70.1356ZM487.008 61.6726C487.008 59.0165 488.131 56.6416 490.573 54.9127C493.033 53.1702 496.87 52.0606 502.316 52.0606V51.0606C496.753 51.0606 492.686 52.1911 489.995 54.0966C487.284 56.0157 486.008 58.6968 486.008 61.6726H487.008ZM502.316 52.0606C507.513 52.0606 511.507 53.0453 514.188 54.9297C516.841 56.7946 518.264 59.5782 518.264 63.3366H519.264C519.264 59.2871 517.71 56.1827 514.763 54.1116C511.844 52.06 507.614 51.0606 502.316 51.0606V52.0606ZM518.264 63.3366V63.5286H519.264V63.3366H518.264ZM518.764 63.0286H509.164V64.0286H518.764V63.0286ZM509.664 63.5286V63.1446H508.664V63.5286H509.664ZM509.664 63.1446C509.664 62.4526 509.58 61.8017 509.331 61.2208C509.078 60.6293 508.665 60.1376 508.054 59.7534C506.867 59.0073 504.947 58.6766 501.996 58.6766V59.6766C504.933 59.6766 506.596 60.018 507.521 60.5999C507.966 60.8797 508.241 61.216 508.412 61.6145C508.587 62.0236 508.664 62.5247 508.664 63.1446H509.664ZM501.996 58.6766C499.597 58.6766 497.982 58.879 496.959 59.4038C496.428 59.6763 496.044 60.0419 495.8 60.5132C495.562 60.9755 495.48 61.4993 495.48 62.0566H496.48C496.48 61.59 496.55 61.2418 496.689 60.9721C496.823 60.7114 497.043 60.485 497.416 60.2935C498.201 59.8903 499.594 59.6766 501.996 59.6766V58.6766ZM495.48 62.0566C495.48 62.5138 495.54 62.9538 495.736 63.3556C495.936 63.7653 496.255 64.0931 496.7 64.3582C497.554 64.8669 498.934 65.1778 501.039 65.433L501.16 64.4403C499.042 64.1835 497.862 63.8864 497.212 63.4991C496.904 63.3162 496.736 63.1239 496.635 62.9177C496.531 62.7035 496.48 62.4315 496.48 62.0566H495.48ZM501.039 65.433L507.887 66.265L508.008 65.2723L501.16 64.4403L501.039 65.433ZM507.892 66.2655C512.149 66.7421 514.978 67.688 516.738 69.1024C518.466 70.49 519.224 72.3782 519.224 74.9206H520.224C520.224 72.1511 519.382 69.9432 517.365 68.3229C515.381 66.7292 512.322 65.7552 508.003 65.2718L507.892 66.2655ZM519.224 74.9206C519.224 77.7369 517.841 80.0832 515.238 81.7474C512.618 83.4228 508.754 84.4046 503.852 84.4046V85.4046C508.869 85.4046 512.942 84.4025 515.777 82.5899C518.63 80.7661 520.224 78.1204 520.224 74.9206H519.224Z" fill="#ffffff"/>
<path d="M630.737 34.0854L637.851 56.6503L660.416 63.7646L637.851 70.879L630.737 93.4438L623.622 70.879L601.058 63.7646L623.622 56.6503L630.737 34.0854Z" fill="#110B09" stroke="#ffffff"/>
<path d="M141.467 47.426L135.537 72.4795L132.53 98.049L113.798 80.3867L93.1574 64.9976L117.819 57.6064L141.467 47.426Z" fill="#110B09" stroke="#ffffff"/>
</svg>
