<svg width="29" height="30" viewBox="0 0 29 30" fill="none" xmlns="http://www.w3.org/2000/svg">
<rect x="0.394043" y="0.625977" width="28.6136" height="28.6136" rx="9.53785" fill="#0B251C"/>
<g clip-path="url(#clip0_4413_3322)">
<path fill-rule="evenodd" clip-rule="evenodd" d="M19.8777 9.1662C16.6928 6.30693 11.7934 6.57094 8.93414 9.7559C6.07488 12.9409 6.33888 17.8402 9.52384 20.6995C12.7088 23.5587 17.6082 23.2947 20.4674 20.1098C23.3267 16.9248 23.0627 12.0255 19.8777 9.1662ZM17.2868 12.6828C17.2782 12.5251 17.2073 12.3772 17.0898 12.2717C16.9722 12.1662 16.8176 12.1116 16.6599 12.12L13.2926 12.3015C13.2126 12.3029 13.1336 12.3205 13.0605 12.3532C12.9875 12.3858 12.9217 12.4329 12.8672 12.4915C12.8126 12.5501 12.7705 12.6191 12.7432 12.6944C12.7159 12.7696 12.7041 12.8496 12.7084 12.9296C12.7127 13.0095 12.7331 13.0877 12.7683 13.1596C12.8035 13.2315 12.8528 13.2956 12.9133 13.348C12.9738 13.4004 13.0443 13.4401 13.1204 13.4647C13.1966 13.4893 13.277 13.4984 13.3567 13.4912L15.2873 13.3872L12.2661 16.7525C12.1604 16.8702 12.1059 17.025 12.1144 17.1829C12.1229 17.3407 12.1938 17.4887 12.3114 17.5944C12.4291 17.7 12.5839 17.7545 12.7417 17.746C12.8996 17.7375 13.0476 17.6666 13.1532 17.549L16.1744 14.1837L16.2785 16.1142C16.28 16.1942 16.2975 16.2732 16.3302 16.3463C16.3628 16.4194 16.4099 16.4851 16.4685 16.5396C16.5271 16.5942 16.5961 16.6363 16.6714 16.6636C16.7466 16.6909 16.8266 16.7027 16.9066 16.6984C16.9865 16.6941 17.0648 16.6737 17.1366 16.6385C17.2085 16.6033 17.2726 16.554 17.325 16.4935C17.3774 16.433 17.4171 16.3625 17.4417 16.2864C17.4664 16.2102 17.4754 16.1298 17.4682 16.0501L17.2868 12.6828Z" fill="#55FF50"/>
</g>
<defs>
<clipPath id="clip0_4413_3322">
<rect width="19.0757" height="19.0757" fill="white" transform="translate(5.16296 5.39478)"/>
</clipPath>
</defs>
</svg>
