<svg width="76" height="24" viewBox="0 0 76 24" fill="none" xmlns="http://www.w3.org/2000/svg">
<g filter="url(#filter0_d_4412_264)">
<path d="M38.5025 0.304035C39.0572 0.304035 39.4732 0.549369 39.7505 1.04004C40.0492 1.50937 40.0705 1.98937 39.8145 2.48003C39.3879 3.2907 38.7265 3.8347 37.8305 4.11203L29.8305 6.54403C29.1905 6.73604 28.6572 6.57604 28.2305 6.06404C27.8252 5.55204 27.7718 5.00804 28.0705 4.43204L28.3585 3.88803C28.6145 3.37604 28.5932 2.88537 28.2945 2.41603C28.0172 1.9467 27.6012 1.71204 27.0465 1.71204H23.4945C23.0679 1.71204 22.6625 1.7867 22.2785 1.93604C21.9158 2.06403 21.5745 2.2667 21.2545 2.54403C20.9558 2.82137 20.7105 3.14137 20.5185 3.50403L20.1345 4.24004C19.7078 5.0507 19.6758 5.89337 20.0385 6.76803C20.4012 7.62137 21.0198 8.17604 21.8945 8.43204L32.9665 11.792C33.4145 11.92 33.7239 12.1974 33.8945 12.624C34.0652 13.0507 34.0438 13.4774 33.8305 13.904L33.7985 13.936C33.4999 14.512 33.0732 14.9707 32.5185 15.312C31.9639 15.6534 31.3559 15.824 30.6945 15.824H5.76652C5.21185 15.824 4.79585 15.5894 4.51852 15.12C4.21985 14.6507 4.19852 14.1707 4.45452 13.68L4.80652 13.04C5.23318 12.1867 5.89452 11.632 6.79052 11.376L14.8225 8.94404C15.4412 8.75204 15.9532 8.91204 16.3585 9.42404C16.7852 9.9147 16.8492 10.4587 16.5505 11.056L15.9105 12.272C15.7825 12.5067 15.7292 12.752 15.7505 13.008C15.7718 13.264 15.8358 13.4987 15.9425 13.712C16.0705 13.9254 16.2518 14.096 16.4865 14.224C16.7212 14.352 16.9665 14.416 17.2225 14.416H19.4625C20.5078 14.416 21.4678 14.1494 22.3425 13.616C23.2385 13.0827 23.9212 12.3574 24.3905 11.44C24.6038 11.0347 24.6252 10.6187 24.4545 10.192C24.2839 9.76537 23.9745 9.47737 23.5265 9.32804L10.7585 5.48804C10.3105 5.3387 9.99052 5.0507 9.79852 4.62403C9.62785 4.19737 9.64918 3.78137 9.86252 3.37603L10.5345 2.09604C10.8332 1.54137 11.2385 1.10404 11.7505 0.784035C12.2838 0.464035 12.8705 0.304035 13.5105 0.304035H38.5025ZM70.0955 0.304035C70.3728 0.304035 70.6289 0.378702 70.8635 0.528035C71.0982 0.656035 71.2795 0.837368 71.4075 1.07203C71.5355 1.28537 71.5995 1.52003 71.5995 1.77604C71.5995 2.03204 71.5355 2.2667 71.4075 2.48003C71.2582 2.7787 71.0662 3.04537 70.8315 3.28004C70.4902 3.62137 70.0955 3.87737 69.6475 4.04803L58.2875 7.47204L48.7195 10.352L48.4955 10.448L47.5355 12.272C47.2795 12.7627 47.2902 13.2427 47.5675 13.712C47.8662 14.1814 48.2928 14.416 48.8475 14.416H53.4235C53.7222 14.416 54.0102 14.3414 54.2875 14.192C54.5648 14.0214 54.7782 13.7974 54.9275 13.52C55.1409 13.0934 55.4822 12.8054 55.9515 12.656L64.6235 10.032C65.1142 9.8827 65.5515 9.96804 65.9355 10.288C66.3195 10.5867 66.5115 10.9814 66.5115 11.472C66.5115 11.7067 66.4582 11.9307 66.3515 12.144C65.7542 13.2747 64.9115 14.1707 63.8235 14.832C62.7355 15.4934 61.5515 15.824 60.2715 15.824H37.3915C36.8368 15.824 36.4208 15.5894 36.1435 15.12C35.8448 14.6294 35.8235 14.1387 36.0795 13.648L40.5915 5.07203C41.3595 3.60003 42.4475 2.43737 43.8555 1.58403C45.2635 0.730702 46.7995 0.304035 48.4635 0.304035H70.0955ZM60.3675 3.12004C60.5382 2.80003 60.5275 2.4907 60.3355 2.19203C60.1435 1.87204 59.8662 1.71204 59.5035 1.71204H58.4475C56.7835 1.71204 55.2475 2.1387 53.8395 2.99203C52.4315 3.84537 51.3435 5.00803 50.5755 6.48003L48.7515 9.96804L55.2155 8.01604C56.2608 7.69604 57.1995 7.17337 58.0315 6.44804C58.8848 5.7227 59.5462 4.8587 60.0155 3.85604L60.3675 3.12004Z" fill="#17C964"/>
</g>
<defs>
<filter id="filter0_d_4412_264" x="0.0704956" y="0.304016" width="75.529" height="23.52" filterUnits="userSpaceOnUse" color-interpolation-filters="sRGB">
<feFlood flood-opacity="0" result="BackgroundImageFix"/>
<feColorMatrix in="SourceAlpha" type="matrix" values="0 0 0 0 0 0 0 0 0 0 0 0 0 0 0 0 0 0 127 0" result="hardAlpha"/>
<feOffset dy="4"/>
<feGaussianBlur stdDeviation="2"/>
<feComposite in2="hardAlpha" operator="out"/>
<feColorMatrix type="matrix" values="0 0 0 0 0 0 0 0 0 0 0 0 0 0 0 0 0 0 0.25 0"/>
<feBlend mode="normal" in2="BackgroundImageFix" result="effect1_dropShadow_4412_264"/>
<feBlend mode="normal" in="SourceGraphic" in2="effect1_dropShadow_4412_264" result="shape"/>
</filter>
</defs>
</svg>
